<svg width="9" height="8" viewBox="0 0 9 8" fill="none" xmlns="http://www.w3.org/2000/svg">
<path d="M4.5 0.5C2.94732 0.5 1.6875 1.50797 1.6875 2.75C1.6875 4.75 4.5 7.5 4.5 7.5C4.5 7.5 7.3125 4.75 7.3125 2.75C7.3125 1.50797 6.05268 0.5 4.5 0.5ZM4.5 4C4.2775 4 4.05999 3.94135 3.87498 3.83147C3.68998 3.72159 3.54578 3.56541 3.46064 3.38268C3.37549 3.19996 3.35321 2.99889 3.39662 2.80491C3.44002 2.61093 3.54717 2.43275 3.7045 2.29289C3.86184 2.15304 4.06229 2.0578 4.28052 2.01921C4.49875 1.98063 4.72495 2.00043 4.93052 2.07612C5.13609 2.15181 5.31179 2.27998 5.4354 2.44443C5.55902 2.60888 5.625 2.80222 5.625 3C5.62467 3.26513 5.50604 3.51931 5.29514 3.70679C5.08423 3.89426 4.79827 3.99971 4.5 4Z" fill="#848484"/>
</svg>
