<svg width="52" height="52" viewBox="0 0 52 52" fill="none" xmlns="http://www.w3.org/2000/svg">
<rect x="1" y="1" width="50" height="50" rx="8" fill="#F0BA72"/>
<rect x="1" y="1" width="50" height="50" rx="8" stroke="black" stroke-width="2"/>
<path d="M23 19C22.7348 19 22.4804 19.1054 22.2929 19.2929C22.1054 19.4804 22 19.7348 22 20C22 20.2652 22.1054 20.5196 22.2929 20.7071C22.4804 20.8947 22.7348 21 23 21C23.2652 21 23.5196 20.8947 23.7071 20.7071C23.8946 20.5196 24 20.2652 24 20C24 19.7348 23.8946 19.4804 23.7071 19.2929C23.5196 19.1054 23.2652 19 23 19ZM20.17 19C20.3766 18.4145 20.7597 17.9074 21.2666 17.5488C21.7735 17.1902 22.3791 16.9976 23 16.9976C23.6209 16.9976 24.2265 17.1902 24.7334 17.5488C25.2403 17.9074 25.6234 18.4145 25.83 19H33C33.2652 19 33.5196 19.1054 33.7071 19.2929C33.8946 19.4804 34 19.7348 34 20C34 20.2652 33.8946 20.5196 33.7071 20.7071C33.5196 20.8947 33.2652 21 33 21H25.83C25.6234 21.5855 25.2403 22.0926 24.7334 22.4512C24.2265 22.8099 23.6209 23.0025 23 23.0025C22.3791 23.0025 21.7735 22.8099 21.2666 22.4512C20.7597 22.0926 20.3766 21.5855 20.17 21H19C18.7348 21 18.4804 20.8947 18.2929 20.7071C18.1054 20.5196 18 20.2652 18 20C18 19.7348 18.1054 19.4804 18.2929 19.2929C18.4804 19.1054 18.7348 19 19 19H20.17ZM29 25C28.7348 25 28.4804 25.1054 28.2929 25.2929C28.1054 25.4804 28 25.7348 28 26C28 26.2652 28.1054 26.5196 28.2929 26.7071C28.4804 26.8947 28.7348 27 29 27C29.2652 27 29.5196 26.8947 29.7071 26.7071C29.8946 26.5196 30 26.2652 30 26C30 25.7348 29.8946 25.4804 29.7071 25.2929C29.5196 25.1054 29.2652 25 29 25ZM26.17 25C26.3766 24.4145 26.7597 23.9074 27.2666 23.5488C27.7735 23.1902 28.3791 22.9976 29 22.9976C29.6209 22.9976 30.2265 23.1902 30.7334 23.5488C31.2403 23.9074 31.6234 24.4145 31.83 25H33C33.2652 25 33.5196 25.1054 33.7071 25.2929C33.8946 25.4804 34 25.7348 34 26C34 26.2652 33.8946 26.5196 33.7071 26.7071C33.5196 26.8947 33.2652 27 33 27H31.83C31.6234 27.5855 31.2403 28.0926 30.7334 28.4512C30.2265 28.8099 29.6209 29.0025 29 29.0025C28.3791 29.0025 27.7735 28.8099 27.2666 28.4512C26.7597 28.0926 26.3766 27.5855 26.17 27H19C18.7348 27 18.4804 26.8947 18.2929 26.7071C18.1054 26.5196 18 26.2652 18 26C18 25.7348 18.1054 25.4804 18.2929 25.2929C18.4804 25.1054 18.7348 25 19 25H26.17ZM23 31C22.7348 31 22.4804 31.1054 22.2929 31.2929C22.1054 31.4804 22 31.7348 22 32C22 32.2652 22.1054 32.5196 22.2929 32.7071C22.4804 32.8947 22.7348 33 23 33C23.2652 33 23.5196 32.8947 23.7071 32.7071C23.8946 32.5196 24 32.2652 24 32C24 31.7348 23.8946 31.4804 23.7071 31.2929C23.5196 31.1054 23.2652 31 23 31ZM20.17 31C20.3766 30.4145 20.7597 29.9074 21.2666 29.5488C21.7735 29.1902 22.3791 28.9976 23 28.9976C23.6209 28.9976 24.2265 29.1902 24.7334 29.5488C25.2403 29.9074 25.6234 30.4145 25.83 31H33C33.2652 31 33.5196 31.1054 33.7071 31.2929C33.8946 31.4804 34 31.7348 34 32C34 32.2652 33.8946 32.5196 33.7071 32.7071C33.5196 32.8947 33.2652 33 33 33H25.83C25.6234 33.5855 25.2403 34.0926 24.7334 34.4512C24.2265 34.8099 23.6209 35.0025 23 35.0025C22.3791 35.0025 21.7735 34.8099 21.2666 34.4512C20.7597 34.0926 20.3766 33.5855 20.17 33H19C18.7348 33 18.4804 32.8947 18.2929 32.7071C18.1054 32.5196 18 32.2652 18 32C18 31.7348 18.1054 31.4804 18.2929 31.2929C18.4804 31.1054 18.7348 31 19 31H20.17Z" fill="black"/>
</svg>
