<svg width="179" height="35" viewBox="0 0 179 35" fill="none" xmlns="http://www.w3.org/2000/svg">
<mask id="mask0_411_170" style="mask-type:luminance" maskUnits="userSpaceOnUse" x="3" y="6" width="29" height="23">
<path d="M17.5 7.29199C30.625 7.29199 30.625 7.29199 30.625 17.5003C30.625 27.7087 30.625 27.7087 17.5 27.7087C4.375 27.7087 4.375 27.7087 4.375 17.5003C4.375 7.29199 4.375 7.29199 17.5 7.29199Z" fill="white" stroke="white" stroke-width="2" stroke-linecap="round" stroke-linejoin="round"/>
<path d="M14.583 12.3965L23.333 17.5007L14.583 22.6048V12.3965Z" fill="black"/>
</mask>
<g mask="url(#mask0_411_170)">
<path d="M35 0H0V35H35V0Z" fill="black"/>
</g>
<path fill-rule="evenodd" clip-rule="evenodd" d="M61.9982 3.8325C63.4645 3.765 63.932 3.75 67.667 3.75C71.402 3.75 71.8695 3.76625 73.3345 3.8325C74.7995 3.89875 75.7995 4.1325 76.6745 4.47125C77.5907 4.8175 78.422 5.35875 79.1095 6.05875C79.8095 6.745 80.3495 7.575 80.6945 8.4925C81.0345 9.3675 81.267 10.3675 81.3345 11.83C81.402 13.2987 81.417 13.7662 81.417 17.5C81.417 21.2337 81.4007 21.7025 81.3345 23.1688C81.2682 24.6313 81.0345 25.6313 80.6945 26.5063C80.3493 27.4238 79.8085 28.2551 79.1095 28.9425C78.422 29.6425 77.5907 30.1825 76.6745 30.5275C75.7995 30.8675 74.7995 31.1 73.337 31.1675C71.8695 31.235 71.402 31.25 67.667 31.25C63.932 31.25 63.4645 31.2337 61.9982 31.1675C60.5357 31.1012 59.5357 30.8675 58.6607 30.5275C57.7432 30.1823 56.9118 29.6415 56.2245 28.9425C55.5252 28.2556 54.9839 27.4247 54.6382 26.5075C54.2995 25.6325 54.067 24.6325 53.9995 23.17C53.932 21.7013 53.917 21.2337 53.917 17.5C53.917 13.7662 53.9332 13.2975 53.9995 11.8325C54.0657 10.3675 54.2995 9.3675 54.6382 8.4925C54.9843 7.57517 55.526 6.74424 56.2257 6.0575C56.9122 5.35838 57.7427 4.81709 58.6595 4.47125C59.5345 4.1325 60.5357 3.9 61.9982 3.8325ZM73.222 6.3075C71.772 6.24125 71.337 6.2275 67.6657 6.2275C63.9945 6.2275 63.5595 6.24125 62.1095 6.3075C60.7682 6.36875 60.0407 6.5925 59.5557 6.78125C58.9145 7.03125 58.4557 7.3275 57.9745 7.80875C57.5179 8.25224 57.1668 8.79262 56.947 9.39C56.7582 9.875 56.5345 10.6025 56.4732 11.9437C56.407 13.3938 56.3932 13.8287 56.3932 17.5C56.3932 21.1712 56.407 21.6062 56.4732 23.0562C56.5345 24.3975 56.7582 25.125 56.947 25.61C57.167 26.2063 57.5182 26.7475 57.9745 27.1912C58.4182 27.6475 58.9595 27.9988 59.5557 28.2188C60.0407 28.4075 60.7682 28.6313 62.1095 28.6925C63.5595 28.7588 63.9932 28.7725 67.6657 28.7725C71.3382 28.7725 71.772 28.7588 73.222 28.6925C74.5632 28.6313 75.2907 28.4075 75.7757 28.2188C76.417 27.9688 76.8757 27.6725 77.357 27.1912C77.8132 26.7475 78.1645 26.2063 78.3845 25.61C78.5732 25.125 78.797 24.3975 78.8582 23.0562C78.9245 21.6062 78.9382 21.1712 78.9382 17.5C78.9382 13.8287 78.9245 13.3938 78.8582 11.9437C78.797 10.6025 78.5732 9.875 78.3845 9.39C78.1345 8.74875 77.8382 8.29 77.357 7.80875C76.9135 7.35216 76.3731 7.00102 75.7757 6.78125C75.2907 6.5925 74.5632 6.36875 73.222 6.3075ZM65.9095 21.7388C66.8903 22.147 67.9825 22.2021 68.9994 21.8947C70.0163 21.5872 70.895 20.9361 71.4853 20.0528C72.0755 19.1695 72.3408 18.1086 72.2358 17.0514C72.1308 15.9942 71.662 15.0062 70.9095 14.2562C70.4298 13.7768 69.8498 13.4098 69.2112 13.1814C68.5726 12.9531 67.8913 12.8692 67.2164 12.9358C66.5414 13.0023 65.8897 13.2177 65.308 13.5664C64.7263 13.9151 64.2292 14.3884 63.8524 14.9523C63.4756 15.5162 63.2285 16.1566 63.1289 16.8275C63.0293 17.4983 63.0797 18.1829 63.2764 18.8319C63.4732 19.4809 63.8113 20.0783 64.2666 20.5809C64.7219 21.0835 65.283 21.479 65.9095 21.7388ZM62.6695 12.5025C63.3258 11.8462 64.1049 11.3256 64.9624 10.9705C65.8198 10.6153 66.7389 10.4325 67.667 10.4325C68.5951 10.4325 69.5141 10.6153 70.3716 10.9705C71.2291 11.3256 72.0082 11.8462 72.6645 12.5025C73.3208 13.1588 73.8414 13.9379 74.1965 14.7954C74.5517 15.6528 74.7345 16.5719 74.7345 17.5C74.7345 18.4281 74.5517 19.3472 74.1965 20.2046C73.8414 21.0621 73.3208 21.8412 72.6645 22.4975C71.3391 23.8229 69.5414 24.5675 67.667 24.5675C65.7926 24.5675 63.9949 23.8229 62.6695 22.4975C61.3441 21.1721 60.5995 19.3744 60.5995 17.5C60.5995 15.6256 61.3441 13.8279 62.6695 12.5025ZM76.302 11.485C76.4646 11.3316 76.5948 11.1471 76.6849 10.9425C76.7749 10.7378 76.823 10.5172 76.8263 10.2937C76.8295 10.0701 76.7879 9.84818 76.7038 9.64101C76.6198 9.43384 76.495 9.24564 76.3369 9.08755C76.1789 8.92946 75.9907 8.8047 75.7835 8.72065C75.5763 8.6366 75.3544 8.59497 75.1308 8.59823C74.9073 8.60149 74.6867 8.64957 74.482 8.73962C74.2774 8.82967 74.0929 8.95987 73.9395 9.1225C73.6411 9.43879 73.4778 9.8589 73.4841 10.2937C73.4905 10.7284 73.666 11.1436 73.9734 11.4511C74.2809 11.7585 74.6961 11.934 75.1308 11.9404C75.5656 11.9467 75.9857 11.7834 76.302 11.485Z" fill="black"/>
<path d="M130.583 17.5C130.583 9.91 124.423 3.75 116.833 3.75C109.243 3.75 103.083 9.91 103.083 17.5C103.083 24.155 107.813 29.6962 114.083 30.975V21.625H111.333V17.5H114.083V14.0625C114.083 11.4087 116.242 9.25 118.896 9.25H122.333V13.375H119.583C118.827 13.375 118.208 13.9937 118.208 14.75V17.5H122.333V21.625H118.208V31.1812C125.152 30.4937 130.583 24.6362 130.583 17.5Z" fill="black"/>
<g clip-path="url(#clip0_411_170)">
<mask id="mask1_411_170" style="mask-type:luminance" maskUnits="userSpaceOnUse" x="151" y="3" width="28" height="29">
<path d="M151 3.5H179V31.5H151V3.5Z" fill="white"/>
</mask>
<g mask="url(#mask1_411_170)">
<path d="M173.05 4.81152H177.344L167.964 15.5595L179 30.1875H170.36L163.588 21.3175L155.848 30.1875H151.55L161.582 18.6875L151 4.81352H159.86L165.972 12.9195L173.05 4.81152ZM171.54 27.6115H173.92L158.56 7.25352H156.008L171.54 27.6115Z" fill="black"/>
</g>
</g>
<defs>
<clipPath id="clip0_411_170">
<rect width="28" height="28" fill="white" transform="translate(151 3.5)"/>
</clipPath>
</defs>
</svg>
