<svg width="18" height="18" viewBox="0 0 18 18" fill="none" xmlns="http://www.w3.org/2000/svg">
<path d="M16.5 1.5C16.8978 1.5 17.2794 1.65804 17.5607 1.93934C17.842 2.22064 18 2.60218 18 3V15C18 15.3978 17.842 15.7794 17.5607 16.0607C17.2794 16.342 16.8978 16.5 16.5 16.5H1.5C1.10218 16.5 0.720644 16.342 0.43934 16.0607C0.158035 15.7794 0 15.3978 0 15V3C0 2.60218 0.158035 2.22064 0.43934 1.93934C0.720644 1.65804 1.10218 1.5 1.5 1.5H16.5ZM16.5 4.0605L10.0725 10.503C9.93328 10.6436 9.76763 10.7552 9.58509 10.8315C9.40254 10.9078 9.20671 10.9472 9.00887 10.9474C8.81104 10.9477 8.6151 10.9089 8.43234 10.8331C8.24958 10.7573 8.08362 10.6462 7.944 10.506L1.5 4.0605V13.938L4.719 10.719C4.78873 10.6493 4.87152 10.594 4.96263 10.5562C5.05373 10.5185 5.15138 10.4991 5.25 10.4991C5.34862 10.4991 5.44627 10.5185 5.53737 10.5562C5.62848 10.594 5.71127 10.6493 5.781 10.719C5.85073 10.7887 5.90605 10.8715 5.94378 10.9626C5.98152 11.0537 6.00095 11.1514 6.00095 11.25C6.00095 11.3486 5.98152 11.4463 5.94378 11.5374C5.90605 11.6285 5.85073 11.7113 5.781 11.781L2.559 15H15.4395L12.219 11.781C12.0782 11.6402 11.9991 11.4492 11.9991 11.25C11.9991 11.0508 12.0782 10.8598 12.219 10.719C12.3598 10.5782 12.5508 10.4991 12.75 10.4991C12.9492 10.4991 13.1402 10.5782 13.281 10.719L16.5 13.9395V4.0605ZM15.4395 3H2.5605L9.0075 9.447L15.4395 3Z" fill="#9D9D9D"/>
</svg>
