<svg width="9" height="8" viewBox="0 0 9 8" fill="none" xmlns="http://www.w3.org/2000/svg">
<path d="M4.5 1.33301C4.89782 1.33301 5.27936 1.47348 5.56066 1.72353C5.84196 1.97358 6 2.31272 6 2.66634C6 3.01996 5.84196 3.3591 5.56066 3.60915C5.27936 3.8592 4.89782 3.99967 4.5 3.99967C4.10218 3.99967 3.72064 3.8592 3.43934 3.60915C3.15804 3.3591 3 3.01996 3 2.66634C3 2.31272 3.15804 1.97358 3.43934 1.72353C3.72064 1.47348 4.10218 1.33301 4.5 1.33301ZM4.5 6.66634C4.5 6.66634 7.5 6.66634 7.5 5.99967C7.5 5.19967 6.0375 4.33301 4.5 4.33301C2.9625 4.33301 1.5 5.19967 1.5 5.99967C1.5 6.66634 4.5 6.66634 4.5 6.66634Z" fill="#848484"/>
</svg>
