<svg width="23" height="23" viewBox="0 0 23 23" fill="none" xmlns="http://www.w3.org/2000/svg">
<path d="M5.74967 21.083C5.22259 21.083 4.77154 20.8955 4.39651 20.5205C4.02148 20.1454 3.83365 19.6941 3.83301 19.1663V9.58301C3.83301 9.05593 4.02084 8.60487 4.39651 8.22984C4.77217 7.85481 5.22323 7.66698 5.74967 7.66634H6.70801V5.74967C6.70801 4.42398 7.17536 3.29411 8.11005 2.36005C9.04474 1.42599 10.1746 0.958647 11.4997 0.958008C12.8247 0.95737 13.9549 1.42472 14.8903 2.36005C15.8256 3.29538 16.2926 4.42526 16.2913 5.74967V7.66634H17.2497C17.7768 7.66634 18.2281 7.85418 18.6038 8.22984C18.9795 8.60551 19.167 9.05656 19.1663 9.58301V19.1663C19.1663 19.6934 18.9788 20.1448 18.6038 20.5205C18.2288 20.8961 17.7774 21.0836 17.2497 21.083H5.74967ZM5.74967 19.1663H17.2497V9.58301H5.74967V19.1663ZM11.4997 16.2913C12.0268 16.2913 12.4781 16.1038 12.8538 15.7288C13.2295 15.3538 13.417 14.9024 13.4163 14.3747C13.4157 13.847 13.2282 13.3959 12.8538 13.0215C12.4794 12.6471 12.028 12.4593 11.4997 12.458C10.9713 12.4567 10.5203 12.6446 10.1465 13.0215C9.77276 13.3985 9.58492 13.8495 9.58301 14.3747C9.58109 14.8998 9.76892 15.3512 10.1465 15.7288C10.5241 16.1064 10.9751 16.2939 11.4997 16.2913ZM8.62467 7.66634H14.3747V5.74967C14.3747 4.95106 14.0952 4.27224 13.5361 3.71322C12.9771 3.15419 12.2983 2.87468 11.4997 2.87468C10.7011 2.87468 10.0222 3.15419 9.46322 3.71322C8.90419 4.27224 8.62467 4.95106 8.62467 5.74967V7.66634Z" fill="#9D9D9D"/>
</svg>
