<svg width="30" height="30" viewBox="0 0 30 30" fill="none" xmlns="http://www.w3.org/2000/svg">
<g clip-path="url(#clip0_411_682)">
<path fill-rule="evenodd" clip-rule="evenodd" d="M15.8834 19.6339C15.649 19.8683 15.3312 19.9999 14.9997 19.9999C14.6682 19.9999 14.3504 19.8683 14.1159 19.6339L7.0447 12.5627C6.92531 12.4474 6.83008 12.3094 6.76457 12.1569C6.69906 12.0044 6.66458 11.8404 6.66313 11.6744C6.66169 11.5085 6.69332 11.3439 6.75617 11.1902C6.81902 11.0366 6.91184 10.8971 7.0292 10.7797C7.14657 10.6623 7.28613 10.5695 7.43975 10.5067C7.59337 10.4438 7.75797 10.4122 7.92395 10.4136C8.08992 10.4151 8.25395 10.4495 8.40645 10.5151C8.55896 10.5806 8.69689 10.6758 8.8122 10.7952L14.9997 16.9827L21.1872 10.7952C21.423 10.5675 21.7387 10.4415 22.0664 10.4443C22.3942 10.4472 22.7077 10.5787 22.9395 10.8104C23.1712 11.0422 23.3027 11.3557 23.3055 11.6834C23.3084 12.0112 23.1824 12.3269 22.9547 12.5627L15.8834 19.6339Z" fill="black"/>
</g>
<defs>
<clipPath id="clip0_411_682">
<rect width="30" height="30" fill="white"/>
</clipPath>
</defs>
</svg>
