<svg width="10" height="10" viewBox="0 0 10 10" fill="none" xmlns="http://www.w3.org/2000/svg">
<g clip-path="url(#clip0_411_1401)">
<path d="M4.99967 0.833496C7.30092 0.833496 9.16634 2.69891 9.16634 5.00016C9.16634 7.30141 7.30092 9.16683 4.99967 9.16683C2.69842 9.16683 0.833008 7.30141 0.833008 5.00016C0.833008 2.69891 2.69842 0.833496 4.99967 0.833496ZM4.99967 1.66683C4.11562 1.66683 3.26777 2.01802 2.64265 2.64314C2.01753 3.26826 1.66634 4.11611 1.66634 5.00016C1.66634 5.88422 2.01753 6.73206 2.64265 7.35719C3.26777 7.98231 4.11562 8.3335 4.99967 8.3335C5.88373 8.3335 6.73158 7.98231 7.3567 7.35719C7.98182 6.73206 8.33301 5.88422 8.33301 5.00016C8.33301 4.11611 7.98182 3.26826 7.3567 2.64314C6.73158 2.01802 5.88373 1.66683 4.99967 1.66683ZM4.99967 2.50016C5.10173 2.50018 5.20023 2.53764 5.2765 2.60546C5.35276 2.67328 5.40148 2.76672 5.41342 2.86808L5.41634 2.91683V4.82766L6.54426 5.95558C6.61899 6.03056 6.66237 6.13118 6.6656 6.23699C6.66883 6.3428 6.63167 6.44588 6.56165 6.52528C6.49164 6.60468 6.39403 6.65446 6.28864 6.6645C6.18326 6.67453 6.078 6.64408 5.99426 6.57933L5.95509 6.54475L4.70509 5.29475C4.64033 5.22993 4.59874 5.14558 4.58676 5.05475L4.58301 5.00016V2.91683C4.58301 2.80632 4.62691 2.70034 4.70505 2.6222C4.78319 2.54406 4.88917 2.50016 4.99967 2.50016Z" fill="#848484"/>
</g>
<defs>
<clipPath id="clip0_411_1401">
<rect width="10" height="10" fill="white"/>
</clipPath>
</defs>
</svg>
