<svg width="44" height="46" viewBox="0 0 44 46" fill="none" xmlns="http://www.w3.org/2000/svg">
<path d="M0 0H44V46H0V0Z"/>
<path d="M21.7165 34.857C21.3149 34.857 21.0786 34.5846 21.0786 34.1993V34.1336C21.0786 33.5793 21.3668 33.2128 21.9244 32.8887C22.5339 32.527 22.7182 32.2921 22.7182 31.8599C22.7182 31.3995 22.3591 31.0801 21.8393 31.0801C21.3763 31.0801 21.0644 31.3056 20.9132 31.7237C20.7951 32.0243 20.5825 32.1558 20.2942 32.1558C19.921 32.1558 19.6894 31.9257 19.6894 31.5686C19.6894 31.3666 19.7367 31.1881 19.8312 31.0096C20.1336 30.3895 20.8896 29.9902 21.9055 29.9902C23.2474 29.9902 24.1499 30.723 24.1499 31.8176C24.1499 32.527 23.805 33.0108 23.1387 33.4007C22.5103 33.7625 22.3686 33.9645 22.3071 34.3591C22.2363 34.6738 22.052 34.857 21.7165 34.857ZM21.7259 36.9475C21.3007 36.9475 20.9558 36.6234 20.9558 36.21C20.9558 35.7966 21.3007 35.4724 21.7259 35.4724C22.1559 35.4724 22.5009 35.7966 22.5009 36.21C22.5009 36.6234 22.1559 36.9475 21.7259 36.9475Z" fill="#1C1C1A"/>
</svg>
